HIERARCHY
ROOT SimulationBone
{
	OFFSET 0.000000 0.000000 0.000000
	CHANNELS 6 Xposition Yposition Zposition Zrotation Yrotation Xrotation 
	JOINT Hips
	{
		OFFSET 0.000000 0.000000 0.000000
		CHANNELS 6 Xposition Yposition Zposition Zrotation Yrotation Xrotation 
		JOINT LeftUpLeg
		{
			OFFSET 0.103462 1.857831 10.548496
			CHANNELS 3 Zrotation Yrotation Xrotation
			JOINT LeftLeg
			{
				OFFSET 43.500000 -0.000038 -0.000010
				CHANNELS 3 Zrotation Yrotation Xrotation
				JOINT LeftFoot
				{
					OFFSET 42.372192 0.000011 0.000010
					CHANNELS 3 Zrotation Yrotation Xrotation
					JOINT LeftToe
					{
						OFFSET 17.299999 0.000001 -0.000001
						CHANNELS 3 Zrotation Yrotation Xrotation
						End Site
						{
							OFFSET 0.000000 0.000000 0.000000
						}
					}
				}
			}
		}
		JOINT RightUpLeg
		{
			OFFSET 0.103456 1.857825 -10.548502
			CHANNELS 3 Zrotation Yrotation Xrotation
			JOINT RightLeg
			{
				OFFSET 43.500038 -0.000023 0.000011
				CHANNELS 3 Zrotation Yrotation Xrotation
				JOINT RightFoot
				{
					OFFSET 42.372261 -0.000008 0.000011
					CHANNELS 3 Zrotation Yrotation Xrotation
					JOINT RightToe
					{
						OFFSET 17.299994 -0.000004 0.000002
						CHANNELS 3 Zrotation Yrotation Xrotation
						End Site
						{
							OFFSET 0.000000 0.000000 0.000000
						}
					}
				}
			}
		}
		JOINT Spine
		{
			OFFSET 6.901965 -2.603729 -0.000002
			CHANNELS 3 Zrotation Yrotation Xrotation
			JOINT Spine1
			{
				OFFSET 12.588101 -0.000004 0.000003
				CHANNELS 3 Zrotation Yrotation Xrotation
				JOINT Spine2
				{
					OFFSET 12.343205 0.000006 0.000001
					CHANNELS 3 Zrotation Yrotation Xrotation
					JOINT Neck
					{
						OFFSET 25.832897 -0.000008 -0.000001
						CHANNELS 3 Zrotation Yrotation Xrotation
						JOINT Head
						{
							OFFSET 11.766601 0.000009 -0.000008
							CHANNELS 3 Zrotation Yrotation Xrotation
							End Site
							{
								OFFSET 0.000000 0.000000 0.000000
							}
						}
					}
					JOINT LeftShoulder
					{
						OFFSET 19.745893 -1.480370 6.000097
						CHANNELS 3 Zrotation Yrotation Xrotation
						JOINT LeftArm
						{
							OFFSET 11.284136 -0.000006 -0.000021
							CHANNELS 3 Zrotation Yrotation Xrotation
							JOINT LeftForeArm
							{
								OFFSET 33.000042 0.000005 0.000030
								CHANNELS 3 Zrotation Yrotation Xrotation
								JOINT LeftHand
								{
									OFFSET 25.200008 0.000013 0.000010
									CHANNELS 3 Zrotation Yrotation Xrotation
									End Site
									{
										OFFSET 0.000000 0.000000 0.000000
									}
								}
							}
						}
					}
					JOINT RightShoulder
					{
						OFFSET 19.746088 -1.480379 -6.000076
						CHANNELS 3 Zrotation Yrotation Xrotation
						JOINT RightArm
						{
							OFFSET 11.284133 -0.000016 -0.000013
							CHANNELS 3 Zrotation Yrotation Xrotation
							JOINT RightForeArm
							{
								OFFSET 33.000095 0.000019 0.000001
								CHANNELS 3 Zrotation Yrotation Xrotation
								JOINT RightHand
								{
									OFFSET 25.199785 0.000138 0.000422
									CHANNELS 3 Zrotation Yrotation Xrotation
									End Site
									{
										OFFSET 0.000000 0.000000 0.000000
									}
								}
							}
						}
					}
				}
			}
		}
	}
}
MOTION
Frames: 10
Frame Time: 0.016667
112.158005 0.000000 -378.316797 0.000000 166.108106 0.000000 1.979167 83.985107 -0.631965 101.821718 -0.406738 -179.250193 152.733807 -12.874603 -177.824371 -67.627717 -0.271337 -7.776267 73.647525 2.824905 -9.130023 21.454543 0.003092 0.000002 175.044006 0.947402 175.604382 -51.577793 2.388596 3.127019 97.936688 -1.981871 1.995463 21.454560 -0.003107 -0.000017 10.386171 0.620256 0.302768 10.763608 1.209562 0.661967 10.445442 1.213675 0.654662 -13.638424 -1.707938 -0.127435 -24.078042 6.933509 -3.702249 -165.478134 -76.600806 -16.329877 17.565389 56.782318 28.336540 -126.230105 0.449761 3.822159 -3.707707 2.476647 27.914878 -166.691094 69.891424 15.077788 -14.306217 -46.141321 0.482180 -117.553907 -1.994140 -3.420308 -15.526429 10.494541 -34.026482 
113.858374 0.000000 -379.363371 0.000000 166.987292 0.000000 2.046824 85.335300 -0.462151 101.242750 -0.342416 -179.228426 154.786958 -11.446525 -178.551880 -67.383738 -0.560848 -8.873661 73.815057 3.621126 -9.179580 21.454546 0.003093 0.000001 174.875564 -0.192487 175.901527 -48.528743 2.484621 3.924226 94.495513 -2.580451 1.172758 21.454558 -0.003109 -0.000017 10.097841 0.470904 0.251180 10.185335 0.917798 0.542850 9.867193 0.921197 0.537308 -14.529870 -2.421767 -0.460069 -23.387806 7.552447 -4.492247 -164.655576 -76.975182 -17.167061 18.267552 55.601554 30.438946 -126.272639 0.441844 3.824355 -4.139885 2.528342 27.663288 -164.978063 69.489090 16.848160 -9.724663 -47.437669 -3.467561 -118.771967 -2.304190 -3.449397 -13.971774 11.311600 -31.500857 
115.530910 0.000000 -380.395940 0.000000 167.909252 0.000000 2.045413 86.682289 -0.232828 100.428385 -0.131385 -179.247049 156.656058 -10.087904 -178.944468 -66.549052 -0.825141 -9.649129 73.742246 4.180897 -9.181666 21.454551 0.003094 -0.000000 174.446365 -1.367906 176.103642 -45.329615 2.744129 4.695797 90.452754 -3.244674 0.213660 21.454557 -0.003111 -0.000018 9.751498 0.343824 0.218865 9.491665 0.668475 0.465186 9.173544 0.671409 0.461149 -15.299419 -3.165578 -0.784308 -22.598150 8.172093 -5.271904 -163.815502 -77.225044 -18.022180 18.799823 54.361460 32.346006 -125.998903 0.405618 3.816343 -4.592797 2.586548 28.114207 -163.426482 69.140199 18.453394 -4.792708 -48.652772 -7.758554 -119.675200 -2.552036 -3.469631 -12.585082 11.473451 -29.328869 
117.184623 0.000000 -381.423331 0.000000 168.876577 0.000000 1.939009 87.978953 0.029812 99.420027 0.024913 -179.293250 158.299939 -8.628829 -179.170271 -65.208293 -0.855822 -9.682587 73.596248 4.153819 -9.305873 21.454551 0.003094 0.000000 173.713010 -2.313694 176.382037 -42.131019 3.134681 5.340810 85.982904 -3.939685 -0.897332 21.454558 -0.003112 -0.000018 9.380086 0.202626 0.176430 8.748010 0.391283 0.367655 8.429900 0.393632 0.365292 -16.074361 -4.116700 -1.110452 -21.748964 8.851390 -6.137853 -162.829457 -77.382769 -19.026317 19.041299 53.198086 33.828386 -125.469746 0.381506 3.797524 -4.917506 2.833151 28.824529 -161.887248 69.024514 20.044690 0.142261 -49.879505 -12.001147 -120.241232 -2.715430 -3.481411 -11.632798 10.715246 -27.756326 
118.827077 0.000000 -382.454728 0.000000 169.894565 0.000000 1.765926 89.156288 0.281290 98.327695 0.140474 -179.399184 159.755570 -7.183196 -179.106917 -63.499011 -0.862400 -8.738369 73.564019 3.448486 -9.365032 21.454551 0.003093 0.000001 172.735744 -3.027602 176.921625 -39.189463 3.488269 5.707048 81.676678 -4.428798 -1.542846 21.454560 -0.003111 -0.000018 9.019646 0.056766 0.127201 8.026574 0.104534 0.258026 7.708464 0.106227 0.257396 -16.959812 -5.312148 -1.351590 -20.932173 9.764925 -7.102567 -161.692186 -77.478505 -20.184819 18.969198 52.251865 34.807500 -124.798497 0.342404 3.774382 -5.109224 3.204591 29.918772 -160.481509 69.024584 21.496800 4.754767 -50.895389 -15.980273 -120.422299 -2.758186 -3.486038 -11.156433 9.523013 -27.178391 
120.467522 0.000000 -383.490367 0.000000 170.955765 0.000000 1.577905 90.147203 0.489686 97.267761 0.274726 -179.580541 161.078778 -5.903981 -178.594494 -61.575628 -1.104848 -6.744054 73.762093 2.090257 -9.148810 21.454552 0.003092 0.000001 171.565937 -3.571286 177.835674 -36.823830 3.633172 5.636576 78.107018 -4.352634 -1.052375 21.454560 -0.003109 -0.000018 8.702570 -0.075867 0.079103 7.392192 -0.156667 0.153210 7.074075 -0.155601 0.154159 -18.007917 -6.726331 -1.429463 -20.239769 11.025287 -8.144718 -160.473296 -77.519640 -21.426910 18.556471 51.602493 35.228190 -124.093574 0.257242 3.752912 -5.153870 3.608306 31.551278 -159.390266 69.020275 22.623976 8.699828 -51.538163 -19.441358 -120.224442 -2.664217 -3.484643 -11.043430 8.394106 -27.798694 
122.117039 0.000000 -384.523547 0.000000 172.041342 0.000000 1.386599 90.914131 0.654355 96.322094 0.455699 -179.779024 162.286510 -4.790207 -177.584987 -59.601965 -1.555284 -4.049246 74.020760 0.310181 -8.687278 21.454555 0.003092 0.000000 170.123770 -4.019898 178.946407 -35.474086 3.464747 5.070355 75.400547 -3.435600 0.979053 21.454558 -0.003108 -0.000018 8.443890 -0.190194 0.027075 6.874876 -0.381703 0.042836 6.556754 -0.381300 0.045146 -19.062040 -8.231425 -1.414808 -19.690493 12.390661 -9.196826 -159.438716 -77.425503 -22.483000 17.676834 51.091279 35.000190 -123.391396 0.147296 3.732852 -4.858960 4.068272 33.422594 -158.583386 69.152247 23.455002 12.024098 -52.098896 -22.301702 -119.894203 -2.511467 -3.481381 -10.983409 7.165119 -29.017095 
123.786309 0.000000 -385.548709 0.000000 173.141290 0.000000 1.196052 91.429364 0.783465 95.553787 0.695348 -179.946688 163.395932 -3.803397 -176.103434 -57.715356 -2.087831 -1.067019 74.111081 -1.666203 -8.166623 21.454557 0.003092 -0.000001 168.318677 -4.440286 179.998330 -35.587815 2.935052 4.145170 73.677539 -1.731582 4.418405 21.454553 -0.003109 -0.000017 8.253099 -0.287603 -0.031122 6.493596 -0.573060 -0.078277 6.175475 -0.573386 -0.074810 -19.942896 -9.686756 -1.409057 -19.272641 13.605327 -10.198776 -158.865888 -77.156113 -23.071376 16.237443 50.561566 34.077883 -122.729056 0.042194 3.713980 -4.082844 4.586782 35.231589 -158.007538 69.540481 24.042446 14.933107 -52.837208 -24.601867 -119.683656 -2.387189 -3.481183 -10.688953 5.613956 -30.220069 
125.478374 0.000000 -386.562920 0.000000 174.254636 0.000000 1.018251 91.675087 0.898649 94.987795 0.951172 179.885947 164.470286 -2.913803 -174.366342 -55.965719 -2.581094 1.919786 73.857594 -3.846505 -8.195178 21.454557 0.003091 -0.000001 166.144188 -4.845093 -179.297315 -37.553622 2.241923 3.652900 73.159904 -0.487342 7.213755 21.454551 -0.003110 -0.000016 8.134772 -0.382278 -0.073537 6.257368 -0.760084 -0.167555 5.939246 -0.760946 -0.162957 -20.610137 -10.990569 -1.440829 -18.968043 14.715511 -11.152441 -158.802279 -76.908355 -23.140296 14.363099 50.131221 32.605850 -122.218298 -0.047544 3.699913 -3.063034 5.011557 37.107426 -157.837912 69.974288 24.209410 17.444125 -53.536687 -26.259759 -119.626692 -2.322087 -3.483409 -10.087788 3.923365 -31.487509 
127.187540 0.000000 -387.566035 0.000000 175.381464 0.000000 0.861297 91.636169 1.013532 94.664460 1.177514 179.697623 165.611371 -2.083927 -172.564206 -54.322303 -2.974399 4.519962 73.192862 -6.017220 -8.929836 21.454553 0.003089 -0.000001 163.695141 -5.220051 -179.097090 -41.581273 1.631075 4.275833 73.749395 -0.832311 7.617089 21.454554 -0.003109 -0.000017 8.097289 -0.486111 -0.079659 6.182743 -0.967337 -0.185071 5.864605 -0.968301 -0.179221 -21.043666 -12.083748 -1.528771 -18.785610 15.798910 -12.079376 -159.205933 -76.865604 -22.729103 12.139343 49.926703 30.704899 -121.946661 -0.119248 3.694017 -2.126079 5.189539 39.213778 -158.198073 70.252845 23.833006 19.471569 -53.979963 -27.164426 -119.711602 -2.324237 -3.486655 -9.258485 2.377799 -32.986691 
